<svg width="226" height="89" viewBox="0 0 226 89" fill="none" xmlns="http://www.w3.org/2000/svg">
<g filter="url(#filter0_d_115_273)">
<rect x="4" y="4" width="218" height="79" rx="8" fill="#EEA204" shape-rendering="crispEdges"/>
<rect x="2" y="2" width="222" height="83" rx="10" stroke="white" stroke-width="4" shape-rendering="crispEdges"/>
<rect x="4" y="4" width="218" height="71" rx="8" fill="#FFDB0A"/>
<path opacity="0.5" fill-rule="evenodd" clip-rule="evenodd" d="M82.016 4H12C7.58172 4 4 7.58173 4 12V66.7708C4 71.1891 7.58173 74.7708 12 74.7708H150.987L82.016 4Z" fill="#FFEE88"/>
</g>
<g filter="url(#filter1_d_115_273)">
<path d="M45.1981 41.5078L45.245 31.875V22.1016C45.2763 22.0859 45.4247 22.0781 45.6903 22.0781H46.5575C46.8856 22.0781 47.1356 22.0625 47.3075 22.0312L50.2138 21.9141C50.9638 21.8828 51.5419 21.8672 51.9481 21.8672H55.6747L62.5653 21.7031C63.5028 21.7031 64.5341 21.7422 65.6591 21.8203H65.8231C66.3544 21.7891 66.6903 21.7734 66.8309 21.7734C69.9559 21.7734 72.6278 22.7656 74.8466 24.75C75.9247 25.7031 76.7763 26.9297 77.4013 28.4297C78.0263 29.9297 78.3388 31.4844 78.3388 33.0938C78.3388 34.6875 78.1747 36.0469 77.8466 37.1719C77.5184 38.2969 77.0966 39.25 76.5809 40.0312C74.5184 43.1875 70.5263 45.0312 64.6044 45.5625L59.5419 45.7734C59.3856 49.5234 59.3075 52.4375 59.3075 54.5156L59.3309 55.2422V57.1406C59.2684 57.3594 59.1513 57.5078 58.9794 57.5859L45.5966 57.7969C45.3309 57.0469 45.1981 55.8438 45.1981 54.1875V41.5078ZM65.7059 31.4531C65.0809 29.8125 63.4247 28.9375 60.7372 28.8281C60.3466 28.8125 59.8075 28.8047 59.12 28.8047C58.9325 28.8047 58.8153 31.1094 58.7684 35.7188L58.7216 37.4766L58.7919 38.8828C60.7138 38.8516 62.4013 38.4453 63.8544 37.6641C65.3231 36.8828 66.0575 35.4609 66.0575 33.3984C66.0575 32.5234 65.9403 31.875 65.7059 31.4531ZM109.954 48C109.845 48.4375 109.79 48.9062 109.79 49.4062V49.9453C109.79 50.7734 109.845 51.3672 109.954 51.7266C109.954 54.0859 109.946 55.9062 109.931 57.1875C109.837 57.5938 102.126 57.7969 86.7978 57.7969C86.0947 57.7969 84.9306 57.7812 83.3056 57.75C83.0556 57.2812 82.9306 56.5078 82.9306 55.4297L82.9775 53.9062V48.5859L83.0009 44.1328V39.7266L83.0244 32.625C83.0244 31.3125 83.0088 30.0781 82.9775 28.9219V28.6641L82.9072 25.2891C82.9072 23.3047 83.0713 22.0156 83.3994 21.4219C83.7119 21.4375 84.1416 21.4453 84.6884 21.4453H85.8134L89.7509 21.3984C94.2353 21.3984 96.7041 21.6797 97.1572 22.2422L96.9697 30.4219L96.8994 37.2891L96.8759 37.5703L96.7822 47.3203L97.7197 47.8594C100.548 47.6875 103.282 47.6016 105.923 47.6016C108.579 47.6016 109.923 47.7344 109.954 48ZM151.554 57.2578C151.538 57.4609 151.108 57.5625 150.265 57.5625H148.108L146.655 57.5859H145.226L142.952 57.6094C140.687 57.6094 138.804 57.5547 137.304 57.4453C137.257 57.4297 137.202 57.3359 137.14 57.1641L137.022 56.6719C136.882 55.0625 136.515 53.5078 135.921 52.0078L125.89 52.1016C125.827 52.3672 125.624 53.1562 125.28 54.4688C124.937 55.7812 124.679 56.7734 124.507 57.4453C124.351 57.6016 123.608 57.6797 122.28 57.6797L121.694 57.6562H120.335L114.241 57.7969H113.538L112.882 57.8203H111.241C111.132 57.7109 111.015 57.5703 110.89 57.3984C112.452 51.9922 114.569 45.2891 117.241 37.2891L117.78 35.625H117.757L118.39 33.6797C118.593 33.0547 119.171 31.3203 120.124 28.4766C121.093 25.6328 121.694 23.7969 121.929 22.9688C122.179 22.1406 122.327 21.7109 122.374 21.6797H126.265L134.585 21.5625L136.835 21.6797L138.687 21.5625C139.624 21.5625 140.093 21.75 140.093 22.125C141.655 26.4844 143.741 32.7578 146.351 40.9453C148.96 49.1328 150.429 53.7344 150.757 54.75L151.085 55.9219C151.194 56.3438 151.351 56.7891 151.554 57.2578ZM128.351 44.4609L129.312 44.4844L134.913 44.4609C134.679 42.6016 134.499 41.2344 134.374 40.3594L133.483 36.3516C132.546 32.2109 132.062 30.1016 132.03 30.0234C131.999 29.9453 131.968 29.875 131.937 29.8125C131.921 29.7344 131.905 29.6875 131.89 29.6719C131.874 29.6406 131.851 29.5938 131.819 29.5312C131.804 29.4688 131.78 29.4297 131.749 29.4141C131.733 29.3828 131.71 29.3438 131.679 29.2969C131.569 29.1094 131.343 28.9453 130.999 28.8047C130.577 28.8984 129.319 33.6016 127.226 42.9141L126.968 44.4609H128.351ZM183.685 21.6797L184.458 21.6562C184.614 21.7344 184.732 21.9297 184.81 22.2422L184.107 23.625V23.6016L182.583 26.5312C180.286 30.7812 178.802 33.6172 178.13 35.0391L177.333 36.5625C176.474 38.2188 175.013 41.1406 172.95 45.3281C172.919 45.8594 172.903 46.6562 172.903 47.7188V57.3984C172.825 57.6484 172.669 57.7734 172.435 57.7734L159.005 57.8672C158.661 57.4297 158.489 56.9297 158.489 56.3672L158.536 53.4375V52.7578L158.56 52.0547L158.583 50.3438C158.583 47.0781 157.747 43.5781 156.075 39.8438C155.716 39.0625 155.193 37.9609 154.505 36.5391L151.013 29.5547C150.919 29.3828 150.669 28.9062 150.263 28.125C149.857 27.3438 149.411 26.5 148.927 25.5938V25.6172C147.677 23.7109 147.052 22.4453 147.052 21.8203C147.052 21.7422 147.302 21.7031 147.802 21.7031H153.825C157.153 21.7031 159.661 21.7266 161.349 21.7734C161.849 21.8672 163.153 25.625 165.263 33.0469L166.318 36.7734C167.911 32.5234 169.591 27.5391 171.357 21.8203C171.372 21.6953 172.528 21.6328 174.825 21.6328H177.825C178.544 21.6328 179.146 21.6484 179.63 21.6797H183.685Z" fill="white"/>
</g>
<defs>
<filter id="filter0_d_115_273" x="0" y="0" width="226" height="89" filterUnits="userSpaceOnUse" color-interpolation-filters="sRGB">
<feFlood flood-opacity="0" result="BackgroundImageFix"/>
<feColorMatrix in="SourceAlpha" type="matrix" values="0 0 0 0 0 0 0 0 0 0 0 0 0 0 0 0 0 0 127 0" result="hardAlpha"/>
<feOffset dy="2"/>
<feComposite in2="hardAlpha" operator="out"/>
<feColorMatrix type="matrix" values="0 0 0 0 0 0 0 0 0 0 0 0 0 0 0 0 0 0 0.15 0"/>
<feBlend mode="normal" in2="BackgroundImageFix" result="effect1_dropShadow_115_273"/>
<feBlend mode="normal" in="SourceGraphic" in2="effect1_dropShadow_115_273" result="shape"/>
</filter>
<filter id="filter1_d_115_273" x="45.1981" y="21.3984" width="139.612" height="37.4688" filterUnits="userSpaceOnUse" color-interpolation-filters="sRGB">
<feFlood flood-opacity="0" result="BackgroundImageFix"/>
<feColorMatrix in="SourceAlpha" type="matrix" values="0 0 0 0 0 0 0 0 0 0 0 0 0 0 0 0 0 0 127 0" result="hardAlpha"/>
<feOffset dy="1"/>
<feComposite in2="hardAlpha" operator="out"/>
<feColorMatrix type="matrix" values="0 0 0 0 0 0 0 0 0 0 0 0 0 0 0 0 0 0 0.15 0"/>
<feBlend mode="normal" in2="BackgroundImageFix" result="effect1_dropShadow_115_273"/>
<feBlend mode="normal" in="SourceGraphic" in2="effect1_dropShadow_115_273" result="shape"/>
</filter>
</defs>
</svg>
