<svg width="226" height="89" viewBox="0 0 226 89" fill="none" xmlns="http://www.w3.org/2000/svg">
<g filter="url(#filter0_d_115_289)">
<rect x="4" y="4" width="218" height="79" rx="8" fill="#EEA204" shape-rendering="crispEdges"/>
<rect x="2" y="2" width="222" height="83" rx="10" stroke="white" stroke-width="4" shape-rendering="crispEdges"/>
<rect x="4" y="4" width="218" height="75" rx="8" fill="#FFDB0A"/>
<path opacity="0.5" fill-rule="evenodd" clip-rule="evenodd" d="M82.0163 4H12C7.58172 4 4 7.58172 4 12V71C4 75.4183 7.58173 79 12 79H150.987L82.0163 4Z" fill="#FFEE88"/>
</g>
<g filter="url(#filter1_d_115_289)">
<path d="M45.1981 43.5078L45.245 33.875V24.1016C45.2763 24.0859 45.4247 24.0781 45.6903 24.0781H46.5575C46.8856 24.0781 47.1356 24.0625 47.3075 24.0312L50.2138 23.9141C50.9638 23.8828 51.5419 23.8672 51.9481 23.8672H55.6747L62.5653 23.7031C63.5028 23.7031 64.5341 23.7422 65.6591 23.8203H65.8231C66.3544 23.7891 66.6903 23.7734 66.8309 23.7734C69.9559 23.7734 72.6278 24.7656 74.8466 26.75C75.9247 27.7031 76.7763 28.9297 77.4013 30.4297C78.0263 31.9297 78.3388 33.4844 78.3388 35.0938C78.3388 36.6875 78.1747 38.0469 77.8466 39.1719C77.5184 40.2969 77.0966 41.25 76.5809 42.0312C74.5184 45.1875 70.5263 47.0312 64.6044 47.5625L59.5419 47.7734C59.3856 51.5234 59.3075 54.4375 59.3075 56.5156L59.3309 57.2422V59.1406C59.2684 59.3594 59.1513 59.5078 58.9794 59.5859L45.5966 59.7969C45.3309 59.0469 45.1981 57.8438 45.1981 56.1875V43.5078ZM65.7059 33.4531C65.0809 31.8125 63.4247 30.9375 60.7372 30.8281C60.3466 30.8125 59.8075 30.8047 59.12 30.8047C58.9325 30.8047 58.8153 33.1094 58.7684 37.7188L58.7216 39.4766L58.7919 40.8828C60.7138 40.8516 62.4013 40.4453 63.8544 39.6641C65.3231 38.8828 66.0575 37.4609 66.0575 35.3984C66.0575 34.5234 65.9403 33.875 65.7059 33.4531ZM109.954 50C109.845 50.4375 109.79 50.9062 109.79 51.4062V51.9453C109.79 52.7734 109.845 53.3672 109.954 53.7266C109.954 56.0859 109.946 57.9062 109.931 59.1875C109.837 59.5938 102.126 59.7969 86.7978 59.7969C86.0947 59.7969 84.9306 59.7812 83.3056 59.75C83.0556 59.2812 82.9306 58.5078 82.9306 57.4297L82.9775 55.9062V50.5859L83.0009 46.1328V41.7266L83.0244 34.625C83.0244 33.3125 83.0088 32.0781 82.9775 30.9219V30.6641L82.9072 27.2891C82.9072 25.3047 83.0713 24.0156 83.3994 23.4219C83.7119 23.4375 84.1416 23.4453 84.6884 23.4453H85.8134L89.7509 23.3984C94.2353 23.3984 96.7041 23.6797 97.1572 24.2422L96.9697 32.4219L96.8994 39.2891L96.8759 39.5703L96.7822 49.3203L97.7197 49.8594C100.548 49.6875 103.282 49.6016 105.923 49.6016C108.579 49.6016 109.923 49.7344 109.954 50ZM151.554 59.2578C151.538 59.4609 151.108 59.5625 150.265 59.5625H148.108L146.655 59.5859H145.226L142.952 59.6094C140.687 59.6094 138.804 59.5547 137.304 59.4453C137.257 59.4297 137.202 59.3359 137.14 59.1641L137.022 58.6719C136.882 57.0625 136.515 55.5078 135.921 54.0078L125.89 54.1016C125.827 54.3672 125.624 55.1562 125.28 56.4688C124.937 57.7812 124.679 58.7734 124.507 59.4453C124.351 59.6016 123.608 59.6797 122.28 59.6797L121.694 59.6562H120.335L114.241 59.7969H113.538L112.882 59.8203H111.241C111.132 59.7109 111.015 59.5703 110.89 59.3984C112.452 53.9922 114.569 47.2891 117.241 39.2891L117.78 37.625H117.757L118.39 35.6797C118.593 35.0547 119.171 33.3203 120.124 30.4766C121.093 27.6328 121.694 25.7969 121.929 24.9688C122.179 24.1406 122.327 23.7109 122.374 23.6797H126.265L134.585 23.5625L136.835 23.6797L138.687 23.5625C139.624 23.5625 140.093 23.75 140.093 24.125C141.655 28.4844 143.741 34.7578 146.351 42.9453C148.96 51.1328 150.429 55.7344 150.757 56.75L151.085 57.9219C151.194 58.3438 151.351 58.7891 151.554 59.2578ZM128.351 46.4609L129.312 46.4844L134.913 46.4609C134.679 44.6016 134.499 43.2344 134.374 42.3594L133.483 38.3516C132.546 34.2109 132.062 32.1016 132.03 32.0234C131.999 31.9453 131.968 31.875 131.937 31.8125C131.921 31.7344 131.905 31.6875 131.89 31.6719C131.874 31.6406 131.851 31.5938 131.819 31.5312C131.804 31.4688 131.78 31.4297 131.749 31.4141C131.733 31.3828 131.71 31.3438 131.679 31.2969C131.569 31.1094 131.343 30.9453 130.999 30.8047C130.577 30.8984 129.319 35.6016 127.226 44.9141L126.968 46.4609H128.351ZM183.685 23.6797L184.458 23.6562C184.614 23.7344 184.732 23.9297 184.81 24.2422L184.107 25.625V25.6016L182.583 28.5312C180.286 32.7812 178.802 35.6172 178.13 37.0391L177.333 38.5625C176.474 40.2188 175.013 43.1406 172.95 47.3281C172.919 47.8594 172.903 48.6562 172.903 49.7188V59.3984C172.825 59.6484 172.669 59.7734 172.435 59.7734L159.005 59.8672C158.661 59.4297 158.489 58.9297 158.489 58.3672L158.536 55.4375V54.7578L158.56 54.0547L158.583 52.3438C158.583 49.0781 157.747 45.5781 156.075 41.8438C155.716 41.0625 155.193 39.9609 154.505 38.5391L151.013 31.5547C150.919 31.3828 150.669 30.9062 150.263 30.125C149.857 29.3438 149.411 28.5 148.927 27.5938V27.6172C147.677 25.7109 147.052 24.4453 147.052 23.8203C147.052 23.7422 147.302 23.7031 147.802 23.7031H153.825C157.153 23.7031 159.661 23.7266 161.349 23.7734C161.849 23.8672 163.153 27.625 165.263 35.0469L166.318 38.7734C167.911 34.5234 169.591 29.5391 171.357 23.8203C171.372 23.6953 172.528 23.6328 174.825 23.6328H177.825C178.544 23.6328 179.146 23.6484 179.63 23.6797H183.685Z" fill="white"/>
</g>
<defs>
<filter id="filter0_d_115_289" x="0" y="0" width="226" height="89" filterUnits="userSpaceOnUse" color-interpolation-filters="sRGB">
<feFlood flood-opacity="0" result="BackgroundImageFix"/>
<feColorMatrix in="SourceAlpha" type="matrix" values="0 0 0 0 0 0 0 0 0 0 0 0 0 0 0 0 0 0 127 0" result="hardAlpha"/>
<feOffset dy="2"/>
<feComposite in2="hardAlpha" operator="out"/>
<feColorMatrix type="matrix" values="0 0 0 0 0 0 0 0 0 0 0 0 0 0 0 0 0 0 0.15 0"/>
<feBlend mode="normal" in2="BackgroundImageFix" result="effect1_dropShadow_115_289"/>
<feBlend mode="normal" in="SourceGraphic" in2="effect1_dropShadow_115_289" result="shape"/>
</filter>
<filter id="filter1_d_115_289" x="45.1981" y="23.3984" width="139.612" height="37.4688" filterUnits="userSpaceOnUse" color-interpolation-filters="sRGB">
<feFlood flood-opacity="0" result="BackgroundImageFix"/>
<feColorMatrix in="SourceAlpha" type="matrix" values="0 0 0 0 0 0 0 0 0 0 0 0 0 0 0 0 0 0 127 0" result="hardAlpha"/>
<feOffset dy="1"/>
<feComposite in2="hardAlpha" operator="out"/>
<feColorMatrix type="matrix" values="0 0 0 0 0 0 0 0 0 0 0 0 0 0 0 0 0 0 0.15 0"/>
<feBlend mode="normal" in2="BackgroundImageFix" result="effect1_dropShadow_115_289"/>
<feBlend mode="normal" in="SourceGraphic" in2="effect1_dropShadow_115_289" result="shape"/>
</filter>
</defs>
</svg>
